<svg width="20" height="18" viewBox="0 0 20 18" fill="none" xmlns="http://www.w3.org/2000/svg">
<path d="M9.8479 5.46676L12.7109 8.32974L12.7245 8.17978C12.7245 6.67556 11.5021 5.45312 9.99787 5.45312L9.8479 5.46676Z" fill="#7D7A86"/>
<path d="M9.99782 3.63548C12.5063 3.63548 14.5422 5.67139 14.5422 8.17991C14.5422 8.76614 14.4241 9.32511 14.2196 9.83861L16.8781 12.4971C18.2505 11.3519 19.3321 9.87044 20.0001 8.17991C18.4232 4.18993 14.5468 1.36328 9.99786 1.36328C8.72541 1.36328 7.50754 1.59049 6.37598 1.99949L8.33916 3.95812C8.85263 3.75818 9.41159 3.63548 9.99782 3.63548Z" fill="#7D7A86"/>
<path d="M0.90887 1.15883L2.98113 3.23108L3.39468 3.64464C1.89502 4.8171 0.70893 6.37585 0 8.17996C1.57238 12.1699 5.45331 14.9966 9.99774 14.9966C11.4065 14.9966 12.7517 14.7239 13.9832 14.2286L14.3695 14.6149L17.0189 17.2688L18.1777 16.1145L2.0677 0L0.90887 1.15883ZM5.93503 6.18043L7.33925 7.58465C7.29836 7.78008 7.27109 7.97546 7.27109 8.17996C7.27109 9.68418 8.49352 10.9066 9.99774 10.9066C10.2022 10.9066 10.3977 10.8793 10.5885 10.8384L11.9928 12.2427C11.3883 12.5426 10.7158 12.7244 9.99774 12.7244C7.48922 12.7244 5.45331 10.6885 5.45331 8.17996C5.45331 7.46195 5.6351 6.78937 5.93503 6.18043Z" fill="#7D7A86"/>
</svg>
