<svg width="24" height="24" viewBox="0 0 24 24" fill="none" xmlns="http://www.w3.org/2000/svg">
<g clip-path="url(#clip0)">
<path d="M13.3066 5.09082H2.5974C1.16355 5.09244 0.00162338 6.25438 0 7.68822V16.309C0.00162338 17.7428 1.16355 18.9047 2.5974 18.9064H13.3066C14.7405 18.9047 15.9024 17.7428 15.904 16.309V7.68822C15.9024 6.25438 14.7405 5.09244 13.3066 5.09082V5.09082Z" fill="#C9C9C9"/>
<path d="M23.738 6.44325C23.5761 6.35092 23.377 6.35234 23.2163 6.4471L17.4728 9.83834C17.3145 9.93189 17.2175 10.1019 17.2175 10.2858V13.4185C17.2175 13.579 17.2916 13.7306 17.4184 13.829L23.1619 18.288C23.3186 18.4096 23.5308 18.4315 23.709 18.3442C23.8871 18.257 24 18.076 24 17.8775V6.89434C24 6.70786 23.8999 6.53578 23.738 6.44325Z" fill="#C9C9C9"/>
</g>
<defs>
<clipPath id="clip0">
<rect width="24" height="24" fill="white"/>
</clipPath>
</defs>
</svg>
