<svg width="20" height="12" viewBox="0 0 20 12" fill="none" xmlns="http://www.w3.org/2000/svg">
<path d="M15.4634 2.52676C15.2641 2.62634 15.0965 2.77945 14.9793 2.96892C14.8621 3.1584 14.7999 3.37676 14.7998 3.59956V8.39956C14.7999 8.62235 14.8621 8.84071 14.9793 9.03019C15.0965 9.21966 15.2641 9.37277 15.4634 9.47236L17.8634 10.6724C18.0463 10.7638 18.2495 10.8069 18.4538 10.7977C18.6581 10.7885 18.8566 10.7273 19.0305 10.6198C19.2045 10.5123 19.3481 10.3622 19.4477 10.1836C19.5473 10.0051 19.5997 9.80403 19.5998 9.59956V2.39956C19.5997 2.19509 19.5473 1.99404 19.4477 1.81548C19.3481 1.63693 19.2045 1.48679 19.0305 1.37932C18.8566 1.27185 18.6581 1.21061 18.4538 1.20141C18.2495 1.19221 18.0463 1.23536 17.8634 1.32676L15.4634 2.52676Z" fill="#B5B2BD"/>
<rect x="0.399902" width="12" height="12" rx="2" fill="#B5B2BD"/>
</svg>
