<svg width="17" height="19" viewBox="0 0 17 19" fill="none" xmlns="http://www.w3.org/2000/svg">
<path d="M8.34961 0C5.58722 0 3.33984 2.24738 3.33984 5.00977C3.33984 7.77215 5.58722 10.0195 8.34961 10.0195C11.112 10.0195 13.3594 7.77215 13.3594 5.00977C13.3594 2.24738 11.112 0 8.34961 0Z" fill="black"/>
<path d="M14.5827 13.2924C13.2112 11.8998 11.3929 11.1328 9.46289 11.1328H7.23633C5.30634 11.1328 3.48806 11.8998 2.1165 13.2924C0.75165 14.6782 0 16.5075 0 18.4434C0 18.7508 0.249227 19 0.556641 19H16.1426C16.45 19 16.6992 18.7508 16.6992 18.4434C16.6992 16.5075 15.9476 14.6782 14.5827 13.2924Z" fill="black"/>
</svg>
