<svg width="32" height="32" viewBox="0 0 32 32" fill="none" xmlns="http://www.w3.org/2000/svg">
<path d="M0.606849 8.91718C1.32704 4.61745 4.61744 1.32704 8.91718 0.606849C10.9787 0.261559 13.3987 0 16 0C18.6013 0 21.0213 0.261558 23.0828 0.606849C27.3826 1.32704 30.673 4.61744 31.3932 8.91718C31.7384 10.9787 32 13.3987 32 16C32 18.6013 31.7384 21.0213 31.3932 23.0828C30.673 27.3826 27.3826 30.673 23.0828 31.3932C21.0213 31.7384 18.6013 32 16 32C13.3987 32 10.9787 31.7384 8.91718 31.3932C4.61745 30.673 1.32704 27.3826 0.606849 23.0828C0.261559 21.0213 0 18.6013 0 16C0 13.3987 0.261558 10.9787 0.606849 8.91718Z" fill="#E8834B"/>
</svg>
