<svg width="20" height="20" viewBox="0 0 20 20" fill="none" xmlns="http://www.w3.org/2000/svg">
<path d="M7.2824 0C11.298 0 14.5648 3.26679 14.5648 7.28201C14.5648 9.03513 13.9453 10.6879 12.8293 12.0008L13.9785 13.1504L14.3929 12.7355C14.6218 12.507 14.9929 12.507 15.2214 12.7355L19.8285 17.3425C20.057 17.5711 20.0574 17.9421 19.8285 18.171L18.171 19.8285C17.9421 20.057 17.5714 20.0574 17.3425 19.8285L12.7359 15.2214C12.507 14.9929 12.507 14.6218 12.7359 14.3929L13.15 13.9789L12.0008 12.8293C10.6847 13.948 9.03084 14.5648 7.2824 14.5648C3.26679 14.5648 0 11.298 0 7.28201C0 3.26679 3.26679 0 7.2824 0Z" fill="#B5B2BD"/>
</svg>
