<svg width="14" height="14" viewBox="0 0 14 14" fill="none" xmlns="http://www.w3.org/2000/svg">
<path d="M10.274 9.03665C10.9629 8.09586 11.375 6.94027 11.375 5.68752C11.375 2.55153 8.82349 0 5.68749 0C2.5515 0 0 2.55153 0 5.68752C0 8.82351 2.55153 11.375 5.68752 11.375C6.94027 11.375 8.09597 10.9629 9.03676 10.274L12.7628 14L14.0001 12.7627C14.0001 12.7627 10.274 9.03665 10.274 9.03665ZM5.68752 9.62502C3.51625 9.62502 1.75002 7.8588 1.75002 5.68752C1.75002 3.51625 3.51625 1.75002 5.68752 1.75002C7.8588 1.75002 9.62503 3.51625 9.62503 5.68752C9.62503 7.8588 7.85877 9.62502 5.68752 9.62502Z" fill="#7D7A86"/>
</svg>
