<svg width="51" height="51" viewBox="0 0 51 51" fill="none" xmlns="http://www.w3.org/2000/svg">
<path fill-rule="evenodd" clip-rule="evenodd" d="M29.2999 8.0836C28.3309 4.1056 22.6699 4.1056 21.7009 8.0836C21.5563 8.68136 21.2725 9.23652 20.8728 9.7039C20.473 10.1713 19.9685 10.5377 19.4004 10.7733C18.8323 11.0089 18.2166 11.107 17.6034 11.0597C16.9902 11.0124 16.3969 10.8209 15.8716 10.501C12.373 8.3692 8.36954 12.3727 10.5013 15.8713C11.8783 18.1306 10.6569 21.0784 8.08649 21.7031C4.10594 22.6696 4.10594 28.3332 8.08649 29.2971C8.68441 29.4419 9.23966 29.7259 9.70704 30.126C10.1744 30.526 10.5407 31.0308 10.7761 31.5992C11.0114 32.1677 11.1092 32.7836 11.0615 33.397C11.0138 34.0103 10.8218 34.6038 10.5013 35.1289C8.36954 38.6275 12.373 42.631 15.8716 40.4992C16.3968 40.1787 16.9902 39.9868 17.6036 39.939C18.2169 39.8913 18.8329 39.9891 19.4013 40.2245C19.9697 40.4598 20.4745 40.8261 20.8746 41.2935C21.2746 41.7609 21.5586 42.3161 21.7035 42.9141C22.6699 46.8946 28.3335 46.8946 29.2974 42.9141C29.4427 42.3164 29.727 41.7616 30.1272 41.2945C30.5273 40.8275 31.032 40.4614 31.6003 40.2261C32.1685 39.9908 32.7842 39.8929 33.3974 39.9404C34.0106 39.9878 34.604 40.1793 35.1292 40.4992C38.6278 42.631 42.6313 38.6275 40.4995 35.1289C40.1796 34.6036 39.9882 34.0103 39.9407 33.3971C39.8932 32.7839 39.9911 32.1682 40.2264 31.5999C40.4617 31.0317 40.8278 30.527 41.2948 30.1268C41.7619 29.7267 42.3168 29.4424 42.9144 29.2971C46.8949 28.3306 46.8949 22.667 42.9144 21.7031C42.3165 21.5583 41.7612 21.2743 41.2938 20.8742C40.8265 20.4742 40.4602 19.9694 40.2248 19.401C39.9894 18.8325 39.8916 18.2166 39.9394 17.6032C39.9871 16.9899 40.1791 16.3964 40.4995 15.8713C42.6313 12.3727 38.6278 8.3692 35.1292 10.501C34.6041 10.8215 34.0107 11.0134 33.3973 11.0612C32.784 11.1089 32.168 11.0111 31.5996 10.7757C31.0312 10.5404 30.5264 10.1741 30.1263 9.7067C29.7263 9.23932 29.4422 8.68407 29.2974 8.08615L29.2999 8.0836ZM25.5004 33.1501C27.5293 33.1501 29.4752 32.3441 30.9098 30.9095C32.3445 29.4748 33.1504 27.529 33.1504 25.5001C33.1504 23.4712 32.3445 21.5254 30.9098 20.0907C29.4752 18.6561 27.5293 17.8501 25.5004 17.8501C23.4715 17.8501 21.5257 18.6561 20.0911 20.0907C18.6564 21.5254 17.8504 23.4712 17.8504 25.5001C17.8504 27.529 18.6564 29.4748 20.0911 30.9095C21.5257 32.3441 23.4715 33.1501 25.5004 33.1501Z" fill="black"/>
</svg>
