<?xml version="1.0" encoding="iso-8859-1"?>
<!-- Generator: Adobe Illustrator 16.0.0, SVG Export Plug-In . SVG Version: 6.00 Build 0)  -->
<!DOCTYPE svg PUBLIC "-//W3C//DTD SVG 1.1//EN" "http://www.w3.org/Graphics/SVG/1.1/DTD/svg11.dtd">
<svg version="1.1" id="Capa_1" xmlns="http://www.w3.org/2000/svg" xmlns:xlink="http://www.w3.org/1999/xlink" x="0px" y="0px"
	 width="31.607px" height="31.607px" viewBox="0 0 31.607 31.607" style="enable-background:new 0 0 31.607 31.607;"
	 xml:space="preserve">
<g>
	<g>
		<g>
			<path d="M18.096,19.273c0.344-0.947,0.145-2.051-0.608-2.82c-1.18-1.204-3.209-1.073-4.205,0.414
				c-0.597,0.892-0.588,2.099,0.016,2.986c0.733,1.079,2.025,1.43,3.125,1.057l3.429,2.793c0.655,0.535,1.522-0.326,0.996-0.986
				L18.096,19.273z"/>
		</g>
		<g>
			<path d="M26.252,9.046l0.346,0.344c0.607,0.609,1.594,0.609,2.203,0c0.607-0.608,0.607-1.594,0-2.203L26.644,5.03
				c-0.608-0.609-1.595-0.609-2.203,0c-0.608,0.608-0.608,1.594,0,2.203l0.345,0.344l-0.688,0.687
				c-1.928-1.625-4.325-2.708-6.957-3.018v-2.13h1.623c0.859,0,1.558-0.698,1.558-1.558C20.321,0.697,19.625,0,18.764,0h-6.361
				c-0.86,0-1.558,0.697-1.558,1.558c0,0.86,0.697,1.558,1.558,1.558h1.622v2.13C7.461,6.02,2.352,11.609,2.352,18.376
				c0,7.295,5.936,13.231,13.231,13.231c7.296,0,13.231-5.937,13.231-13.231c0-3.308-1.228-6.328-3.242-8.65L26.252,9.046z
				 M15.583,28.49c-5.577,0-10.115-4.537-10.115-10.114c0-5.578,4.538-10.116,10.115-10.116c5.578,0,10.116,4.538,10.116,10.116
				C25.698,23.953,21.16,28.49,15.583,28.49z"/>
		</g>
	</g>
</g>
<g>
</g>
<g>
</g>
<g>
</g>
<g>
</g>
<g>
</g>
<g>
</g>
<g>
</g>
<g>
</g>
<g>
</g>
<g>
</g>
<g>
</g>
<g>
</g>
<g>
</g>
<g>
</g>
<g>
</g>
</svg>
